<?xml version="1.0" standalone="no"?>
<!DOCTYPE svg PUBLIC "-//W3C//DTD SVG 20010904//EN"
 "http://www.w3.org/TR/2001/REC-SVG-20010904/DTD/svg10.dtd">
<svg version="1.0" xmlns="http://www.w3.org/2000/svg"
 width="230.000000pt" height="170.000000pt" viewBox="0 0 230.000000 170.000000"
 preserveAspectRatio="xMidYMid meet">

<g transform="translate(0.000000,170.000000) scale(0.100000,-0.100000)"
fill="#000000" stroke="none">
<path d="M1148 1524 c-5 -4 -8 -26 -8 -49 0 -32 -5 -46 -21 -56 -19 -13 -16
-14 30 -14 47 0 49 1 31 15 -13 10 -20 30 -22 63 -2 27 -6 45 -10 41z"/>
<path d="M1366 1291 c44 -55 63 -89 84 -153 11 -36 32 -75 45 -88 l24 -22 8
33 9 32 22 -34 c21 -33 22 -33 22 -8 0 43 -56 141 -112 194 -51 49 -51 49 -14
6 39 -45 80 -124 74 -142 -2 -6 -19 13 -38 42 -18 29 -59 78 -89 109 -31 31
-47 45 -35 31z"/>
<path d="M892 1255 c-28 -30 -65 -78 -84 -106 -18 -28 -34 -46 -36 -40 -6 18
35 97 74 142 l38 44 -51 -49 c-58 -55 -98 -123 -108 -181 l-6 -40 22 34 23 34
9 -32 8 -33 25 23 c13 12 31 44 38 69 18 60 48 119 81 159 44 51 21 35 -33
-24z"/>
<path d="M951 1248 c-21 -29 -53 -76 -70 -105 -31 -50 -31 -53 -17 -88 l15
-36 34 38 c30 33 35 47 39 105 4 42 13 80 26 103 31 51 19 43 -27 -17z"/>
<path d="M1013 1192 l-52 -106 21 -34 21 -34 31 31 c31 31 31 32 31 141 0 61
0 110 0 109 0 0 -23 -48 -52 -107z"/>
<path d="M1235 1188 c0 -107 0 -108 31 -139 l31 -31 21 34 21 34 -52 105 -52
105 0 -108z"/>
<path d="M1326 1258 c9 -18 19 -62 22 -98 4 -56 9 -70 39 -103 l34 -38 15 36
c17 42 12 53 -73 173 -48 68 -63 80 -37 30z"/>
<path d="M1140 1253 c0 -16 -12 -55 -25 -88 -14 -33 -25 -64 -25 -70 0 -5 14
-25 30 -43 l30 -32 33 37 34 37 -24 53 c-14 30 -27 72 -30 94 -6 44 -23 53
-23 12z"/>
<path d="M700 960 c0 -7 157 -10 450 -10 293 0 450 3 450 10 0 7 -157 10 -450
10 -293 0 -450 -3 -450 -10z"/>
<path d="M734 863 c3 -21 6 -48 6 -60 0 -17 6 -23 23 -23 20 0 22 5 25 60 l2
60 -31 0 c-31 0 -31 -1 -25 -37z"/>
<path d="M854 878 c3 -13 6 -40 6 -60 0 -37 1 -38 35 -38 35 0 35 0 35 44 0
24 3 51 6 60 5 13 -2 16 -41 16 -44 0 -47 -1 -41 -22z"/>
<path d="M1004 869 c3 -17 6 -44 6 -60 0 -28 2 -29 50 -29 l50 0 0 44 c0 24 3
51 6 60 5 14 -3 16 -56 16 l-62 0 6 -31z"/>
<path d="M1184 884 c3 -9 6 -36 6 -60 l0 -44 50 0 50 0 0 34 c0 19 4 46 10 60
l10 26 -66 0 c-56 0 -65 -2 -60 -16z"/>
<path d="M1364 884 c3 -9 6 -36 6 -60 0 -44 0 -44 35 -44 34 0 35 1 35 38 0
20 3 47 6 60 6 21 3 22 -41 22 -39 0 -46 -3 -41 -16z"/>
<path d="M1510 886 c0 -7 3 -34 6 -60 5 -36 11 -46 25 -46 13 0 19 7 19 23 0
12 3 39 6 60 6 36 6 37 -25 37 -19 0 -31 -5 -31 -14z"/>
<path d="M873 465 c-15 -16 -16 -25 -5 -25 4 0 13 9 20 20 14 23 3 26 -15 5z"/>
<path d="M200 460 c0 -5 5 -10 10 -10 6 0 10 5 10 10 0 6 -4 10 -10 10 -5 0
-10 -4 -10 -10z"/>
<path d="M240 460 c0 -5 5 -10 11 -10 5 0 7 5 4 10 -3 6 -8 10 -11 10 -2 0 -4
-4 -4 -10z"/>
<path d="M425 460 c-3 -5 1 -10 10 -10 9 0 13 5 10 10 -3 6 -8 10 -10 10 -2 0
-7 -4 -10 -10z"/>
<path d="M460 460 c0 -5 5 -10 10 -10 6 0 10 5 10 10 0 6 -4 10 -10 10 -5 0
-10 -4 -10 -10z"/>
<path d="M1255 460 c-3 -5 -1 -10 4 -10 6 0 11 5 11 10 0 6 -2 10 -4 10 -3 0
-8 -4 -11 -10z"/>
<path d="M1290 460 c0 -5 5 -10 10 -10 6 0 10 5 10 10 0 6 -4 10 -10 10 -5 0
-10 -4 -10 -10z"/>
<path d="M570 395 l0 -64 260 2 260 1 0 63 c0 35 -4 63 -10 63 -5 0 -10 -25
-10 -56 l0 -55 -47 3 c-46 3 -48 4 -51 36 -2 17 -7 32 -12 32 -5 0 -10 -15
-12 -32 -2 -25 -8 -33 -23 -33 -14 0 -21 8 -23 28 -2 15 -7 27 -12 27 -5 0
-10 -12 -12 -27 -2 -20 -9 -28 -23 -28 -14 0 -21 8 -23 28 -2 15 -7 27 -12 27
-5 0 -10 -12 -12 -27 l-3 -28 -107 -3 -108 -3 0 56 c0 30 -4 55 -10 55 -6 0
-10 -28 -10 -65z"/>
<path d="M900 444 c0 -8 5 -12 10 -9 6 4 8 11 5 16 -9 14 -15 11 -15 -7z"/>
<path d="M1120 395 c0 -37 4 -65 10 -65 6 0 10 28 10 65 0 37 -4 65 -10 65 -6
0 -10 -28 -10 -65z"/>
<path d="M1800 395 l0 -65 170 0 c189 0 194 2 139 58 -23 24 -40 32 -65 32
-19 0 -34 -5 -34 -10 0 -6 10 -8 23 -5 23 6 77 -26 77 -46 0 -5 -63 -9 -145
-9 l-145 0 0 55 c0 30 -4 55 -10 55 -6 0 -10 -28 -10 -65z"/>
<path d="M166 404 c-11 -29 -6 -53 13 -64 11 -5 83 -10 160 -10 l141 0 0 45
c0 43 -1 45 -29 45 -32 0 -63 -32 -54 -56 4 -11 -9 -14 -66 -14 l-71 0 0 35
c0 35 0 35 -44 35 -31 0 -46 -5 -50 -16z m72 -26 c3 -24 0 -28 -23 -28 -27 0
-41 20 -31 46 10 27 51 13 54 -18z m222 2 c0 -23 -4 -30 -20 -30 -25 0 -36 25
-20 45 21 25 40 18 40 -15z"/>
<path d="M520 375 c0 -31 -5 -47 -15 -51 -8 -4 -15 -10 -15 -15 0 -11 33 1 42
15 11 16 9 96 -2 96 -5 0 -10 -20 -10 -45z"/>
<path d="M1222 408 c-17 -17 -15 -42 6 -61 16 -15 51 -17 280 -17 l262 0 0 26
c0 41 -18 64 -50 64 -32 0 -54 -27 -44 -54 5 -13 -3 -16 -46 -16 -42 0 -51 3
-46 15 3 8 9 22 12 30 7 16 -29 29 -67 23 -20 -2 -24 -8 -21 -36 l2 -32 -100
0 -100 0 0 35 c0 34 -1 35 -38 35 -21 0 -43 -5 -50 -12z m68 -29 c0 -27 -3
-30 -27 -27 -49 5 -40 57 10 58 12 0 17 -8 17 -31z m274 25 c12 -5 13 -10 4
-30 -14 -29 -24 -30 -38 -4 -17 32 -1 48 34 34z m174 -6 c19 -19 15 -48 -7
-48 -28 0 -47 26 -31 45 15 18 22 19 38 3z"/>
<path d="M2050 300 c0 -5 5 -10 10 -10 6 0 10 5 10 10 0 6 -4 10 -10 10 -5 0
-10 -4 -10 -10z"/>
<path d="M162 198 c3 -52 3 -53 38 -56 24 -3 38 2 47 14 15 21 18 94 3 94 -5
0 -10 -17 -10 -39 0 -42 -18 -65 -44 -55 -11 4 -16 19 -16 50 0 24 -5 44 -11
44 -6 0 -9 -21 -7 -52z"/>
<path d="M290 194 c0 -30 4 -53 8 -50 5 3 7 19 4 36 -6 40 9 38 32 -5 29 -53
46 -46 46 20 0 62 -17 75 -22 18 l-3 -38 -23 38 c-13 20 -28 37 -33 37 -5 0
-9 -25 -9 -56z"/>
<path d="M410 195 c0 -30 5 -55 10 -55 6 0 10 25 10 55 0 30 -4 55 -10 55 -5
0 -10 -25 -10 -55z"/>
<path d="M453 239 c3 -8 11 -33 18 -56 17 -63 44 -59 64 9 18 61 18 58 5 58
-5 0 -15 -21 -21 -46 -13 -49 -23 -48 -36 5 -5 19 -15 37 -22 39 -8 3 -11 -1
-8 -9z"/>
<path d="M570 195 l0 -55 38 1 c32 1 33 2 12 8 -36 10 -38 39 -3 44 l28 4 -27
2 c-36 1 -39 31 -3 31 14 0 25 5 25 10 0 6 -16 10 -35 10 l-35 0 0 -55z"/>
<path d="M668 199 c-1 -28 0 -53 5 -56 4 -2 7 5 7 16 0 27 21 27 38 1 7 -11
17 -20 23 -20 8 0 7 5 -1 15 -11 13 -11 20 0 40 17 31 0 55 -40 55 -27 0 -28
-3 -32 -51z m62 16 c0 -9 -9 -15 -25 -15 -16 0 -25 6 -25 15 0 9 9 15 25 15
16 0 25 -6 25 -15z"/>
<path d="M780 235 c-15 -18 -7 -31 31 -50 36 -19 28 -39 -12 -31 -17 3 -29 1
-29 -5 0 -6 16 -9 38 -7 30 2 38 7 40 26 3 18 -3 25 -27 33 -39 14 -40 29 -1
29 17 0 30 5 30 10 0 15 -56 12 -70 -5z"/>
<path d="M880 195 c0 -30 5 -55 10 -55 6 0 10 25 10 55 0 30 -4 55 -10 55 -5
0 -10 -25 -10 -55z"/>
<path d="M920 240 c0 -5 9 -10 21 -10 18 0 20 -5 18 -40 -2 -21 0 -42 4 -46 4
-4 7 14 7 39 0 40 3 47 20 47 11 0 20 5 20 10 0 6 -20 10 -45 10 -25 0 -45 -4
-45 -10z"/>
<path d="M1030 245 c0 -2 9 -19 20 -37 11 -18 20 -41 20 -50 0 -10 5 -18 10
-18 6 0 10 10 10 23 0 12 9 37 20 55 23 38 8 44 -17 6 l-16 -26 -14 26 c-12
22 -33 36 -33 21z"/>
<path d="M1196 234 c-19 -18 -21 -65 -4 -82 16 -16 70 -16 86 0 17 17 15 64
-4 82 -8 9 -26 16 -39 16 -13 0 -31 -7 -39 -16z m72 -33 c5 -32 -23 -54 -49
-40 -19 10 -26 49 -12 63 4 4 19 6 33 4 18 -2 26 -10 28 -27z"/>
<path d="M1310 195 c0 -54 15 -77 22 -33 2 14 13 25 28 29 l25 7 -27 1 c-36 1
-39 31 -3 31 14 0 25 5 25 10 0 6 -16 10 -35 10 l-35 0 0 -55z"/>
<path d="M1442 238 c-20 -20 -13 -39 18 -50 37 -12 34 -34 -4 -31 -14 1 -26
-3 -26 -8 0 -6 17 -9 38 -7 32 3 37 6 37 28 0 17 -7 26 -24 30 -38 9 -38 30
-1 30 18 0 29 4 25 10 -9 14 -48 13 -63 -2z"/>
<path d="M1530 195 c0 -54 15 -77 22 -32 4 30 48 38 48 8 0 -11 5 -23 10 -26
6 -4 10 15 10 49 0 33 -4 56 -11 56 -5 0 -9 -10 -7 -22 2 -19 -2 -24 -24 -26
-24 -3 -28 0 -28 22 0 14 -4 26 -10 26 -5 0 -10 -25 -10 -55z"/>
<path d="M1673 233 c-3 -10 -12 -33 -20 -52 -14 -36 -8 -58 8 -28 6 9 19 17
29 17 10 0 23 -8 29 -17 19 -35 22 -4 4 46 -18 52 -39 65 -50 34z m31 -29 c9
-22 8 -24 -9 -24 -8 0 -15 9 -15 20 0 24 15 27 24 4z"/>
<path d="M1760 195 c0 -30 5 -55 10 -55 6 0 10 9 10 20 0 26 15 25 34 -2 9
-12 19 -19 22 -15 4 4 1 13 -6 21 -10 13 -9 19 4 31 9 9 16 20 16 24 0 17 -26
31 -57 31 l-33 0 0 -55z m65 20 c0 -5 -10 -11 -22 -13 -16 -2 -23 2 -23 13 0
11 7 15 23 13 12 -2 22 -7 22 -13z"/>
<path d="M1900 205 c0 -38 -4 -47 -22 -55 -21 -9 -20 -9 7 -7 29 2 30 4 33 55
2 31 -1 52 -7 52 -6 0 -11 -20 -11 -45z"/>
<path d="M1963 233 c-3 -10 -12 -33 -20 -52 -14 -36 -8 -58 8 -28 6 9 19 17
29 17 10 0 23 -8 29 -17 19 -35 22 -4 4 46 -18 52 -39 65 -50 34z m31 -29 c9
-22 8 -24 -9 -24 -8 0 -15 9 -15 20 0 24 15 27 24 4z"/>
<path d="M2050 195 c0 -54 15 -77 22 -32 2 14 11 23 26 25 18 3 22 -1 22 -22
0 -14 5 -26 10 -26 6 0 10 25 10 55 0 30 -4 55 -10 55 -5 0 -10 -11 -10 -25 0
-20 -5 -25 -25 -25 -20 0 -25 5 -25 25 0 14 -4 25 -10 25 -5 0 -10 -25 -10
-55z"/>
</g>
</svg>
